<?xml version="1.0" encoding="utf-8"?>
<!-- Generator: Adobe Illustrator 23.0.5, SVG Export Plug-In . SVG Version: 6.00 Build 0)  -->
<svg version="1.1" id="Layer_1" xmlns="http://www.w3.org/2000/svg" xmlns:xlink="http://www.w3.org/1999/xlink" x="0px" y="0px"
	 viewBox="0 0 2500 870" style="enable-background:new 0 0 2500 870;" xml:space="preserve">
<style type="text/css">
	.st0{fill:#FFFFFF;}
</style>
<g>
	<path class="st0" d="M641.8,428c6.8-6.9,13.2-13.3,20.4-20.5c-1.6-1.3-3.5-2.7-5.2-4.3c-3.5-3.4-7-6.8-10.2-10.4
		c-11.7-13.4-13.4-33.9-4.2-48.5c10-15.9,28.3-23.2,46.2-18.4c31.1,8.3,41.1,46.6,18.2,69.9c-4.1,4.2-8.4,8.3-12.4,12.2
		c6.8,6.7,13.2,13.2,19.9,19.9c4.1-4.1,8.3-8.5,12.6-12.8c14.9-14.7,37.4-16.4,54.2-4c15.6,11.6,21,32.5,12.9,50.5
		c-7.7,17.2-27,26.9-45.7,23.2c-8.3-1.7-15.4-5.5-21.3-11.5c-4.3-4.3-8.6-8.7-12.7-12.9c-6.7,6.8-13.1,13.2-20,20.2
		c3.5,3.4,7.4,7.2,11.3,10.9c8.5,8,13.2,17.8,13.7,29.6c0.8,17-9.7,33.3-25.6,39.8c-16.3,6.6-34.9,2.5-46.4-10.4
		c-15.2-17.1-14.5-41.4,1.8-57.6c4.2-4.2,8.5-8.4,12.7-12.6c-6.8-6.7-13.3-13.1-20.1-19.8c-3.8,3.9-7.8,8.1-12,12.2
		c-14,13.9-34.5,16.9-51,7.4c-16.1-9.3-24-28.2-19.3-46.6c4.4-17.5,20.3-30.1,38.7-30.7c12.3-0.4,22.8,3.9,31.4,12.6
		C633.7,419.7,637.8,423.9,641.8,428z M726.8,445c3.2,3.2,7.1,6.5,10.4,10.3c5.9,6.9,13.3,8.7,21.9,7.6
		c10.6-1.4,18.3-12.1,15.9-22.5c-3.2-14-21.4-20.5-33.1-11.3C736.3,433.5,732,439.4,726.8,445z M678.1,391.8
		c4.8-4.6,9.9-9.2,14.5-14.1c4.1-4.4,5-9.9,3.9-15.8c-1.4-7.3-7.4-13.3-14.8-14.6c-8.3-1.5-15.8,1.9-20,9
		c-3.9,6.5-3.6,15.1,1.3,20.6C667.7,382.2,673,386.9,678.1,391.8z M626.1,443.7c-4.4-4.3-8.8-8.7-13.3-13.1
		c-7.3-7.1-18.7-7.1-26.1-0.1c-7.4,6.9-8,18.4-1.5,25.8c7,8,18.5,9.3,26.4,2.4C616.6,454.3,621,449.1,626.1,443.7z M678.5,496.8
		c-5.1,4.8-10.6,9.2-15.2,14.4c-6.6,7.5-5.4,18.5,2.2,25.5c7.1,6.6,18.2,6.4,25.5-0.4c7-6.5,8.2-18,2-25.2
		C688.4,505.9,683.1,501.3,678.5,496.8z M678.1,463.3c6.3-6.4,12.8-12.8,18.9-19c-6.3-6.3-12.7-12.7-18.6-18.6
		c-6.3,6.2-12.9,12.6-19,18.7C665.6,450.5,671.9,457,678.1,463.3z"/>
	<path class="st0" d="M1222.4,509.1c-9.5,0-18.6,0-28.2,0c0-1.3,0-2.5,0-3.7c0-22.5,0-45.1,0-67.6c0-7-0.6-14-3.3-20.5
		c-3.3-7.8-9.1-12.4-17.6-13.1c-15.6-1.3-24.8,6.1-27,21.8c-0.5,4.1-0.8,8.2-0.8,12.3c-0.1,22.3,0,44.7,0,67c0,1.2,0,2.4,0,3.8
		c-9.6,0-18.8,0-28.3,0c0-40.8,0-81.4,0-122.3c9.1,0,18.2,0,27.8,0c0,7.6,0,15.4,0,23.1c0.3,0.1,0.5,0.3,0.8,0.4
		c7.2-17.1,19.4-27.3,38.5-26.4c19,0.8,30.2,12,36.5,29.9c0.8-1.9,1.4-3.2,2-4.6c9.1-21.8,32.1-31.3,53.8-22.1
		c9.8,4.1,15.7,11.8,19.3,21.5c2.8,7.5,3.8,15.4,3.8,23.3c0,24.7,0,49.5,0,74.2c0,0.9-0.1,1.9-0.1,3c-9.5,0-18.7,0-28.3,0
		c0-1.2,0-2.3,0-3.4c0-23.1,0-46.2,0-69.3c0-6.4-0.7-12.8-3.2-18.8c-3.3-8.1-9.2-12.7-18-13.4c-14.3-1.2-22.8,4.8-26,18.8
		c-1,4.1-1.4,8.5-1.5,12.8c-0.2,23.2-0.1,46.4-0.1,69.6C1222.4,506.5,1222.4,507.6,1222.4,509.1z"/>
	<path class="st0" d="M946.8,414.4c0-26.3,0-52,0-77.9c9.4,0,18.6,0,27.9,0c0,57.6,0,115,0,172.6c-9.3,0-18.4,0-27.8,0
		c0-8.2,0-16.3,0-24.5c-0.2-0.1-0.4-0.1-0.6-0.2c-1.1,1.9-2.1,3.9-3.3,5.8c-19.7,29.9-60.9,28.9-79.4-1.8
		c-8.6-14.3-11.3-29.8-10.4-46.2c0.7-12.4,3.9-24.1,10.4-34.7c12.4-20.3,36.9-29,57.8-20.3c10.6,4.4,18,12.3,22.9,22.6
		c0.6,1.2,1.1,2.4,1.7,3.6C946,413.5,946.1,413.6,946.8,414.4z M881.7,447.2c0.1,9.3,1.1,17.7,4.5,25.6
		c4.9,11.5,13.4,18.4,26.2,19.2c13.4,0.8,23.5-4.6,29.7-16.7c4.3-8.4,5.5-17.4,5.5-26.7c0.1-10.2-1.2-20.2-6.2-29.3
		c-5.9-10.7-15.3-15.7-27.3-15.5c-11.9,0.2-20.8,5.6-26.4,16.2C883,428.7,881.9,438.2,881.7,447.2z"/>
	<path class="st0" d="M1432.1,456.3c-30.3,0-60.2,0-90.5,0c0.3,6.4,1.8,12.1,4.2,17.6c8.1,18.4,25.6,21,40.3,16.1
		c7.1-2.4,11.5-7.9,14.5-14.6c0.4-0.9,1.6-2,2.5-2.1c8.5-0.1,17-0.1,25.5-0.1c0.3,0,0.7,0.2,1.3,0.3c-2,7.5-5.5,14.1-10.4,19.9
		c-6.3,7.4-14.2,12.4-23.5,15.2c-12.9,4-25.9,4.6-39,1.5c-18.5-4.3-31.7-15.4-38.7-33c-7.9-19.6-8.1-39.6,0.3-59.1
		c9.9-22.9,28.4-33.4,52.7-34.3c15-0.5,29,3.2,40.8,13.1c12.2,10.2,18.2,23.8,20.2,39.3C1433.1,442.7,1433.3,449.3,1432.1,456.3z
		 M1403.8,436.3c-1-11.8-4.8-22-15-28.2c-10.4-6.3-21.4-6.3-31.8-0.1c-10.4,6.2-13.5,16.8-15.4,28.3
		C1362.5,436.3,1382.9,436.3,1403.8,436.3z"/>
	<path class="st0" d="M1793.9,512.4c-15.8-0.5-30-4.7-41.9-15.4c-9.8-8.9-15.5-20.2-18-33.1c-2.9-15.2-2.2-30.1,3.7-44.5
		c7-17.1,19.6-28.3,37.4-33.1c18.1-4.8,35.8-3.5,52.4,5.9c13.1,7.5,21.4,18.9,25.4,33.3c5.6,20.1,4.6,39.8-5.9,58.2
		c-8.4,14.9-21.6,23.4-38.1,26.7C1804,511.6,1798.9,511.8,1793.9,512.4z M1761.2,447.3c0.2,9.8,1.2,19.2,5.7,28
		c5.2,10.3,13.5,16.1,25.1,16.8c12,0.7,21.6-3.6,28.1-14.1c4.6-7.5,6.3-15.7,6.8-24.3c0.7-11.6-0.2-22.9-5.5-33.5
		c-10.3-20.6-39.5-22.5-52.3-3.3C1762.8,426.1,1761.5,436.7,1761.2,447.3z"/>
	<path class="st0" d="M1047.3,490.9c1.2-3.9,2.5-7.8,3.7-11.6c9.4-30.1,18.8-60.3,28.2-90.4c0.3-0.9,1.3-2.2,1.9-2.2
		c9.3-0.1,18.5-0.1,28.3-0.1c-0.9,3-1.6,5.7-2.5,8.4c-15,47.8-30,95.6-45.1,143.3c-1.4,4.5-2.7,8.9-4.3,13.4c-0.3,0.9-1.3,2.2-2,2.2
		c-9.1,0.1-18.3,0.1-27.9,0.1c6-19.4,11.9-38.3,17.9-57.7c-1.3-0.1-2.3-0.2-3.3-0.2c-6.6,0-13.2,0-19.8,0c-1.5,0-2.4-0.4-2.9-2
		c-12.6-35.2-25.3-70.4-37.9-105.6c-0.2-0.5-0.3-1.1-0.5-2c4.2,0,8.2,0,12.2,0c4.7,0,9.4,0.1,14,0c1.6,0,2.3,0.6,2.9,2.1
		c9.6,27.4,19.3,54.7,29,82c2.2,6.2,4.4,12.4,6.6,18.6c0.2,0.6,0.5,1.2,0.8,1.7C1046.8,490.9,1047.1,490.9,1047.3,490.9z"/>
	<path class="st0" d="M1447,509.3c0-41.1,0-81.8,0-122.6c9.3,0,18.3,0,27.9,0c0,7.6,0,15.2,0,22.8c0.3,0,0.6,0.1,0.9,0.1
		c0.4-0.8,0.8-1.6,1.2-2.4c11.6-24.4,43.7-31.5,64.2-14c8.4,7.2,12.1,17,13.7,27.6c0.6,3.8,0.8,7.6,0.9,11.4c0.1,24.5,0,49.1,0,73.6
		c0,1,0,2.1,0,3.2c-1.2,0.1-2,0.2-2.9,0.2c-7.4,0-14.9-0.1-22.3,0.1c-2.5,0.1-3.2-0.7-3.2-3.2c0.1-23,0.2-46-0.1-69
		c-0.1-6-1.1-12.2-2.9-17.9c-3-9.4-10.2-14.3-20-15c-15.4-1.2-25.4,6.6-28,22c-0.6,3.8-1,7.8-1,11.7c-0.1,22.7-0.1,45.5,0,68.2
		c0,2.6-0.6,3.5-3.3,3.4c-7.3-0.2-14.7-0.1-22.1-0.1C1449,509.3,1448.1,509.3,1447,509.3z"/>
	<path class="st0" d="M1870.1,509.3c0-41.1,0-81.7,0-122.5c9.3,0,18.5,0,27.9,0c0,7.7,0,15.3,0,22.9c0.2,0.1,0.5,0.2,0.7,0.3
		c0.6-1.2,1.3-2.3,1.9-3.5c11.3-22,38.2-29.6,59.2-16.7c10,6.1,15.1,15.7,17.4,26.9c1,4.5,1.6,9.3,1.6,13.9
		c0.2,25.3,0.1,50.6,0.1,75.9c0,0.8-0.1,1.7-0.2,2.6c-9.4,0-18.6,0-28.3,0c0-1.3,0-2.5,0-3.7c0-23,0-46,0-69c0-6.6-0.8-13-3.6-19
		c-3.6-7.9-9.8-12.3-18.4-13.1c-7.4-0.8-14.5,0.1-20.5,5.3c-5.2,4.5-7.6,10.5-8.6,17c-0.6,3.9-0.9,8-0.9,12c-0.1,22.3,0,44.7,0,67
		c0,3.7,0,3.7-3.7,3.7c-7.1,0-14.1,0-21.2,0C1872.4,509.3,1871.4,509.3,1870.1,509.3z"/>
	<path class="st0" d="M1673.7,417.9c-9.2,0-18,0-26.8-0.1c-0.7,0-1.7-0.6-2-1.2c-4.4-9-12.3-12.2-21.5-12.9
		c-8.1-0.6-16.1,0.6-22.4,6.6c-5.6,5.4-4.7,14.1,2.4,17.2c6.5,2.8,13.5,4.4,20.4,6.3c9.5,2.5,19.2,4.2,28.5,7.2
		c8.8,2.8,16.3,7.9,20.5,16.7c5.8,12.2,5.6,31.9-11.5,43.7c-9.1,6.3-19.3,9-30.1,10c-13.3,1.3-26.3,0.4-38.7-5.2
		c-13.4-6.1-21.9-16.3-24.9-30.8c-0.2-0.7-0.2-1.5-0.3-2.4c9.5,0,18.8,0,28.1,0c0.1,0.2,0.3,0.3,0.4,0.4
		c2.7,10.8,9.8,16.8,20.7,18.1c8.3,1,16.4,0.7,24.1-3.1c5.2-2.5,8.3-6.6,8.2-12.7c0-6-2.9-10.5-8.4-12.4c-7.3-2.6-14.9-4.5-22.5-6.4
		c-9.6-2.4-19.5-3.8-28.6-8.1c-10.7-5.1-18.2-12.6-19.3-25c-1.2-13.4,4.6-23.6,15.6-30.7c12.8-8.3,27.1-10.4,42-9.1
		c11.7,1,22.7,4.1,32.1,11.6c6.5,5.1,11,11.6,13.2,19.6C1673.4,416,1673.5,416.7,1673.7,417.9z"/>
	<path class="st0" d="M1690,386.7c9.5,0,18.6,0,27.9,0c0,40.8,0,81.5,0,122.4c-9.3,0-18.5,0-27.9,0
		C1690,468.3,1690,427.6,1690,386.7z"/>
	<path class="st0" d="M1718.8,336.7c0,5.2,0,10.6,0,15.9c0,4.2-0.1,8.4,0,12.6c0,1.8-0.6,2.3-2.3,2.3c-8.4-0.1-16.8-0.1-25.2,0
		c-1.8,0-2.3-0.7-2.3-2.4c0.1-8.9,0-17.7,0-26.6c0-1.2,0.1-2.3,1.8-2.3c9,0,17.9,0,26.9,0.1C1718,336.3,1718.3,336.5,1718.8,336.7z"
		/>
</g>
</svg>
