<?xml version="1.0" encoding="utf-8"?>
<!-- Generator: Adobe Illustrator 23.0.5, SVG Export Plug-In . SVG Version: 6.00 Build 0)  -->
<svg version="1.1" id="Layer_1" xmlns="http://www.w3.org/2000/svg" xmlns:xlink="http://www.w3.org/1999/xlink" x="0px" y="0px"
	 viewBox="0 0 2500 870" style="enable-background:new 0 0 2500 870;" xml:space="preserve">
<style type="text/css">
	.st0{fill:#FFFFFF;}
	.st1{fill:#4CFF77;}
</style>
<g>
	<g>
		<path class="st0" d="M847.9,118.1h47.9v124.2h51.4V118.1h47.9v305h-47.9V285.9h-51.4v137.2h-47.9V118.1z"/>
		<path class="st0" d="M1074.9,293.3l-57.9-175.1h51l32.7,112h0.9l32.7-112h46.6l-57.9,175.1v129.8h-47.9V293.3z"/>
		<path class="st0" d="M1202.5,118.1h70.6c47.9,0,71.5,26.6,71.5,75.4v30.1c0,48.8-23.5,75.4-71.5,75.4h-22.7v124.2h-47.9V118.1z
			 M1273.1,255.4c15.2,0,23.5-7,23.5-28.8v-36.2c0-21.8-8.3-28.8-23.5-28.8h-22.7v93.7H1273.1z"/>
		<path class="st0" d="M1370.7,118.1h130.7v43.6h-82.8v80.6h65.8v43.6h-65.8v93.7h82.8v43.6h-130.7V118.1z"/>
		<path class="st0" d="M1528.8,118.1h71c49.7,0,71,23.1,71,70.1V207c0,31.4-10,51.4-31.4,60.1v0.9c24,7.4,31.8,30.1,31.8,64.5v53.6
			c0,14.8,0.4,25.7,5.2,37h-48.8c-2.6-7.8-4.4-12.6-4.4-37.5v-55.8c0-28.3-8.3-37.5-30.1-37.5h-16.6v130.7h-47.9V118.1z
			 M1594.2,248.8c17.9,0,28.8-7.8,28.8-32.2v-23.5c0-21.8-7.4-31.4-24.4-31.4h-21.8v87.1H1594.2z"/>
	</g>
	<g>
		<path class="st0" d="M1123.3,438.7h46.6l21.6,236.7h0.9l22.9-236.7h52.8l22.9,236.7h0.9l21.6-236.7h41.8l-31.2,307.9h-60.3
			l-22-207.6h-0.9l-22,207.6h-64.2L1123.3,438.7z"/>
		<path class="st0" d="M1411,438.7h65.5l50.1,307.9h-48.4l-8.8-61.1v0.9h-55l-8.8,60.3h-44.9L1411,438.7z M1463.8,644.5l-21.6-152.2
			h-0.9l-21.1,152.2H1463.8z"/>
		<path class="st0" d="M1574.2,615.5l-58.5-176.8h51.5l33,113h0.9l33-113h47.1l-58.5,176.8v131.1h-48.4V615.5z"/>
	</g>
	
		<ellipse transform="matrix(0.9386 -0.3451 0.3451 0.9386 -157.9123 352.6151)" class="st0" cx="911.5" cy="619.8" rx="192.9" ry="65.4"/>
	
		<ellipse transform="matrix(0.8332 -0.553 0.553 0.8332 -156.6073 590.8149)" class="st1" cx="901.1" cy="555" rx="88.2" ry="82.5"/>
	<g>
		<path class="st0" d="M955.8,555.2c0.1,1.7-0.2,2.4-0.1,3.8c0.2-0.2,0.2-0.7,0,0.3c0.1,0.1,0.2,0.5,0.3-0.2c0.1,0.1,0,0.6,0.1,1
			c0-0.3,0-1,0.2-1c0,2-0.3,1.9-0.3,4.1c-0.2,0.1-0.1-0.7-0.1-0.8c-0.2,3,0.2,4.2-0.2,7.5c-0.1-0.4-0.4,2.4,0,1.9
			c-0.7,3.6-0.5,2.4-1.4,6.5c0.2-0.4,0.6-1.2,0.8-2.4c0.2,0.7-0.5,2.9-1.1,4.8c0.2-0.8,0-0.3-0.3,0.8c0.1-0.1,0.1-0.3,0.3-0.6
			c-0.8,2.6-2,5.4-3.8,8.2c-1,1.4-2.3,2.8-4,4c-0.4,0.4-0.8,0.7-1.2,0.9c-0.5,0.2-1.1,0.6-1.7,0.9c-1.3,0.4-2.4,0.7-3.6,0.9
			c-1,0.1-1.9,0-2.9-0.1c-0.8-0.2-1.8-0.4-2.7-0.9c-0.1-0.1,0.5,0,0.5,0c-2.3-1.1-3.6-2.9-3.9-3.3c-0.4-0.5-0.2,0.5,2.3,2.5
			c0,0-0.9-0.7-1.9-1.7c-0.9-1-1.8-2.4-2.1-2.9c0.6,1,0.1-0.2-0.1-0.7c-0.6-0.7-1-1.9-1.6-3.5c0.3,0.3,0.3,0.9,0.6,1.4
			c-0.1-0.5-0.7-1.9-0.9-2.6c-0.1,0.2,0.1,0.5,0.3,0.9c-0.2-0.1-0.4-1.1-0.7-1.5c0.1,0.1,0.1,0.2,0.3,0.3c-0.9-2.9-1.1-3.8-1.7-6.1
			c-0.1-0.4,0.1,0.1-0.1,0.1c-0.2-1.2-0.3-1.1-0.6-2.5c0.2,0.3,0.2,0.7,0.5,1.9c-0.3-1.7-0.6-4-1.1-5.4c0,0.5,0.3,1.6,0.3,2.2
			c-0.4-1-0.7-3-0.9-4.2c0.5,0.9-0.3-1.3-0.1-1.4c-0.1-0.5,0,0.3-0.1-0.2c-0.4-1.8-0.7-3-1.1-4.8c0.2,0.5,0.2,1,0.4,1.7
			c-0.1-1.3-0.4-1.9-0.9-3.9c0.1,0.7,0.4,1.5,0.3,1.9c-0.2-0.3-0.2-0.7-0.3-1.4c0.1,0.1,0.1,0.2,0.1,0.2c-0.7-3.4-1.3-5.8-2.1-8
			c-0.3-1.1-0.8-2.1-1.2-3.1c-0.2-0.5-0.6-1-0.8-1.3c0,0.3-0.5,0.7-0.7,1.2c-0.1-0.2,0.4-1.1,0.7-1.2c-0.1-0.1-0.1-0.1-0.1-0.2
			c-0.1,0.2-0.2,0.2-0.2,0.4c-1.1,1.7-1.9,5.2-2.6,8.4c0.1-0.2,0.2-0.5,0.3-1c-0.1,1.4-0.6,2.7-0.9,4.1c0.4-1.1-0.3,0.9,0.1,0.2
			l-0.5,3c0.1-0.2,0-0.6,0.2-1.1c-1.4,8.2-1.6,18.8-1.9,26c0,0,0-0.3,0-0.5c0,4.9-0.7,14.5-0.5,19.6c0.1,0.7,0.2,0.9,0.1,1.4
			c0,0,0.1-0.1,0.2-0.2c0.1,0.5-0.4,0.9-0.1,1.8c-0.1,0.3-0.1-1.7-0.3-2.2c-0.2,3.2-0.2,6.9,0.1,10.4c-0.3-1.3-0.1,1.5,0,2.5
			c-0.1,0.3-0.1-1.9-0.2-2.3c-0.2,0.8,0,4.2,0.3,4.9c-0.1,0.2-0.1,0.1-0.2-0.1c0,0,0,0.3,0,0.6c-0.1,0.1,0-0.9-0.1-1.3
			c-0.1,0.1,0,0.9,0,1.1c-0.2-1-0.2,0.7-0.1,1.7c0,0.3-0.4-2.4-0.4-1c-0.2-0.6-0.3-1.3-0.5-1.5c-0.2,0.2-0.1,1.2-0.6,0.9
			c0,0.6,0.3,1.9,0.3,3c-0.1-0.2-0.1-0.8-0.2-1.2c-0.2,0.7-0.2,1.8-0.5,1c-0.1,0.1,0,0.5,0,0.5c-0.1,0.6,0.1,0.5,0.1,0.7
			c0,0.5-0.3-0.6-0.4-1.8c-0.1,0.2,0,1,0,2.2c-0.1,0.6-0.1-1.1-0.1-1.4c0,0.3,0.1,1.4,0,1.7c-0.2-0.1-0.1-1.1-0.1-1.5
			c-0.2-0.3-0.3-1.1-0.3,0c-0.2-0.1-0.1-0.8-0.2-0.6c-0.1,0.9-0.2-0.7-0.1,0.6c-0.1-0.1-0.1-0.5-0.2-0.9c-0.3-0.3,0,1.3-0.1,2.1
			c-0.2-0.1-0.1-1.3-0.2-1.8c0-0.9-0.2-0.1-0.4-0.7c-0.1,0.1,0.2,0.3,0.1,0.7c-0.1-0.2-0.2-0.3-0.2-0.7c-0.2,0.8,0,3-0.2,0.2
			c0,0.5,0,1.7-0.1,2.4c-0.1-0.7,0-2.2,0-3c-0.1,0.1-0.4-0.4-0.3-0.6c-0.1,0.3-0.3,0.6-0.3,0.9c0,0.6,0.1,1.1,0.1,1.4l0.3,0
			c0,0.6-0.2,0.4-0.3,0c-0.1,0.1,0,1-0.1,1.2c0.1-1.2-0.9-3-1.1-1.9c0.1,0.1,0,0.3,0,0.6c0.1,0.1,0.1,0.2,0.2,0.3
			c-0.1,0.2-0.1-0.1-0.2-0.3c0.1,0.5,0.1,1.1,0.1,1.4c-0.1,0.1-0.2-0.9-0.3-1.6l-0.1-0.1c-0.1,0.2,0.2,0.6,0.1,0.8
			c-0.2-0.1-0.1-0.2-0.2-0.3c0,0.5,0,1,0,1.7c-0.2-0.1-0.2-0.6-0.2-1.2c-0.3,0.2-0.1,2.1-0.1,3.1c0-0.9-0.2-2.2-0.3-3
			c-0.2,0.2-0.4,0.5-0.3,1.4c0,0-0.1,0.1-0.1,0.3c-0.1-0.1-0.2-0.7-0.4-1c-0.1,0.1-0.1,0.3,0,0.6c-0.2-0.1-0.1-0.5-0.2-0.6
			c-0.2-0.5-0.4-0.4-0.5-0.3c-0.2-1-0.7-1.8-1.1-2c-0.1,0.1,0,0.3,0.1,0.7c0.1,0.2,0.2,0.1,0.1-0.1c0.2,0.2,0.1,1-0.1,0.6
			c0.2,0.5,0,0.6,0.2,1c-0.3,0-0.1-0.4-0.3-0.9c0.1,0.8-0.2-0.1-0.3-0.3c-0.1,0.1-0.1,0.5-0.3,0.2c-0.1,0.2,0.3,0.6,0.2,0.6
			c-0.5-0.9-0.4-1.4-0.7-2.2c-0.1,0.3,0,0.6-0.2-0.1c0,0-0.2-0.2-0.2,0.2c-0.1-0.1-0.2-0.3-0.3-0.6c-0.1,0.2,0.2,0.6-0.1,0.6
			c-0.4-1.1,0-1.1-0.5-2.3c0.1-0.1,0.2,0.5,0.2,0.5c-0.5-1.6-1.2-2.1-1.8-3.8c0.3,0.1-0.3-1.4-0.5-1c-0.5-2.1-0.3-1.4-1-3.5
			c-0.1,0.3,0,0.7,0.1,1.4c-0.4-0.2-0.6-1.4-0.8-2.5c0.2,0.3,0.2,0.1-0.1-0.4c0,0,0.1,0.1,0,0.3c-1.1-3.2-1.8-7-2.9-10.8
			c0,0,0.1,0.2,0.2,0.2c-0.4-1.7-0.9-2.6-0.3-0.6c-0.1,0.1-0.4-1.4-0.7-1.9c0.2,0.5,0.2-0.1,0.2-0.4c-0.3-0.3-0.4-1-0.5-1.9
			c0.1,0.2,0.1,0.5,0.3,0.9c0-0.3-0.2-1-0.4-1.4c0.1,0.1,0.1,0.2,0.1,0.5c-0.2-0.1-0.2-0.6-0.3-0.9c0.1-0.1,0.1,0.1,0.2,0.1
			c-0.3-1.4-0.5-2.1-0.9-3.3c-0.1-0.2-0.1,0.1-0.1,0.1c-0.1-0.7-0.4-0.7-0.4-1.4c0.2,0.2,0.2,0.3,0.4,1.1c-0.2-1-0.5-2.3-0.8-3.2
			c0,0.3,0.2,1,0.2,1.3c-0.3-0.6-0.5-1.8-0.7-2.4c0.4,0.5-0.3-0.9-0.1-1c-0.1-0.2,0,0.3-0.2-0.1c-0.2-1-0.5-1.8-0.7-2.8
			c0.3,0.3,0.2,0.6,0.3,0.9c0-0.7-0.3-1.1-0.5-2.3c-0.1,0.5,0.2,1,0.1,1.3c-0.1-0.2-0.1-0.5-0.3-0.9c0.1,0.1,0.1,0.1,0.2,0.1
			c-1-4.2-1.4-6.1-2.5-10.4c0.1-0.1,0.1,0.2,0.1,0.2c-0.3-3.9-1.6-8.1-2.4-12.4c-0.1,0.1,0,0.3,0.1,0.7c-0.3-0.9-0.3-1.7-0.5-2.6
			c-0.1,0.6,0.1-0.6-0.1-0.1l-0.4-1.9c0.1,0.1,0.2,0.3,0.2,0.7c-0.8-5.2-2.1-11.5-2.6-15.8c0,0,0.1,0.1,0,0.3
			c-0.6-3-0.7-8.8-1.2-11.8c-0.1-0.4-0.2-0.5-0.3-0.9c0,0-0.1,0.1-0.1,0.2c-0.1-0.2,0.3-0.6-0.1-1.1c0.2-0.2,0.4,1,0.4,1.4
			c0-2-0.3-4.2-0.6-6.2c0.4,0.7,0-1-0.1-1.5c0.1-0.2,0.2,1.2,0.4,1.3c0-0.5-0.2-2.3-0.3-2.9c-0.1-0.1-0.1-0.1,0,0c0,0,0.1-0.2,0-0.3
			c0.1-0.1,0.1,0.5,0.2,0.6c0.1,0.1-0.1-0.4-0.1-0.7c0.2,0.7,0.1-0.3,0.1-0.9c-0.1-0.1,0.3,1.4,0.4,0.5c0.1,0.4,0.2,0.7,0.5,0.9
			c0.2-0.2,0.2-0.8,0.4-0.6c0.1-0.3-0.1-1.1-0.2-1.8c0.1,0.1,0.1,0.5,0.2,0.6c0.1-0.3,0.2-1,0.6-0.6l0-0.3c-0.1-0.4-0.1-0.2-0.2-0.3
			c0.1-0.3,0.4,0.2,0.4,1.1c0.2-0.2,0.1-0.6,0-1.3c0-0.5,0.1,0.5,0.1,0.8c0.1-0.2,0-0.9,0-1.1c0.1,0.1,0.1,0.7,0.2,1
			c-0.1,0.2,0.2,0.6,0.1-0.1c0.2,0.1,0.1,0.5,0.2,0.5c-0.1-0.7,0.2,0.3,0.1-0.5c0.2,0.1,0.2,0.3,0.1,0.5c0.4,0.2,0.2-0.8,0.2-1.3
			c0.1,0.1,0.1,0.8,0.1,1.1c0.1,0.5,0.2-0.1,0.4,0.4c0.1-0.1-0.1-0.2,0-0.5c0.1,0.1,0.1,0.2,0.2,0.5c0-0.5-0.1-1.8,0.1-0.2
			c0.1-0.3,0-1,0-1.4c0.2,0.3,0.1,1.4,0.2,1.8c0.2,0.6,0.3,0.3,0.6,0.6c0-0.5-0.1-1.4-0.3-1.6l-0.2,0.1c-0.1-0.4,0.2-0.2,0.3,0
			c0.1-0.1-0.1-0.7,0-0.7c-0.2,0.7,0.9,1.7,1.1,1c0-0.3-0.2-0.9-0.1-1.1c0.1-0.2,0.3,0.9,0.2,1c0.3,0,0.2-0.7,0.1-1.4
			c0.1-0.1,0.2,0.3,0.2,0.6c0.3,0,0-1.1,0.1-1.8c0,0.9,0.3,2.5,0.7,2.4c0-0.3,0.1,0.1-0.1,0.2c0.1,0.8,0.4,0.5,0.6,0.9
			c0.4-0.8,0.8,0.4,1.3,1.4c0.2-0.2,0.2-1.1,0.2-1.6c0.6,1.1,0.3,3.6,0.9,4.7c0.2,2.3,0.7,5.6,1.3,7.4c0,0-0.1-0.1,0-0.3
			c0.7,4.4,1.2,9.5,2.1,14.5c0.1,1.1-0.2-0.6-0.2-0.6c-0.1,0.1,0.3,1.6,0.2,1.3c0.3,1.4,0.8,4.6,1,5.7c0.2,0.1,0.1-0.2,0.1-0.5
			c1.1,5.2,2.5,13.3,3.7,17.9c0.4,1,0.5,2.3,0.7,3.3c-0.6-1.7-1.2-5.3-1.9-7.7c0.4,2.1,0.9,4.7,1.1,6.4c-0.3-1.3-0.6-2.9-1-4.4
			c0.2,2.1,0.9,4.5,1.5,7c0-0.6-0.4-1.5-0.5-2.3c0.4,0.5,0.5,1.5,0.6,2.2c1.1,5.4,2.4,10.6,3.8,15.8c-0.1-0.4,0-0.7,0-1.1
			c-0.2-0.6-0.3-1.1-0.3-1.4c0.1,0.1,0.2,0.1,0.2,0.2c0,0.3,0.1,0.5,0.1,0.7c0.1-0.2,0.1-0.3,0-0.6c-1.2-4.7-2.4-9.6-3.5-14.1
			c1,3.9,2.3,9.1,3.4,13.8c0.1-2.5,0.2-5.2,0.2-7.6c0.1-0.1,0.1,0.1,0.1,0.2c0.1-3.2,0.2-10.4,0.7-15.3c0.1,0.5-0.1,2.2-0.1,3.1
			c0.2-0.7,0.2-2.4,0.5-3.6c-0.7,8.2-0.8,15.3-1.2,23c0,0.3,0,0.6,0,0.7c0.1,0.4,0.2,0.7,0.3,1.1c0.2-3.8,0.3-8,0.5-12
			c0-1.9,0,1.1-0.1,1.2c0.1-0.1,0.2-3,0.2-2.4c0-2.5,0.4-8.2,0.6-10c-0.1-0.1-0.1,0.3-0.2,0.8c0.3-4.7,1-10.6,2.5-16.6
			c0.8-3,1.6-6.1,3.5-9.1c0.4-0.8,1.2-1.6,1.9-2.4c0.3-0.3,0.6-0.5,1-0.8c-1,0.6-1.5,1.5-2.1,2.3c-0.6,0.8-0.9,1.3-1.3,2
			c0.3-0.5,0.7-1.1,1-1.7c0.5-0.5,1-1.1,1.7-1.8c0.7-0.6,1.5-1.1,2.2-1.6c0.8-0.4,1.5-0.7,2.3-0.9c0.9-0.2,1.8-0.4,2.7-0.4
			c1,0,2,0,2.8,0.4c1.8,0.5,3.1,1.4,3.9,2.2c-1.4-1.3-3.8-2.6-6.6-2.5c-2.5,0.2-4.5,0.8-6.6,2.4c1.4-1,2.7-1.7,4.3-2.1
			c1.7-0.3,4-0.5,5.9,0.4c3.9,1.7,5.5,4.7,6.7,6.9c-0.4-1-1.6-3.1-3.1-4.6c1.6,1.1,2.4,2.9,3.1,4.3c2.8,5.9,3.6,11.3,4.7,16.5
			c1.1,5.2,2.1,10.3,3.3,15.2c0.1,0.5,0.4,1.3,0.5,1.8c0.6,2,1.3,3.9,2.1,5.1c0.2,0.5,0.4,0.7,0.8,0.6c0.1-0.1,0.1-0.1,0.3-0.2
			c0.5-0.2,0.9-0.6,1.3-1.1c1-0.9,1.7-2.3,2.3-3.9c0,0-0.1,0.2-0.1,0.3c0.6-1.6,1.5-4.4,1.8-6.3c-0.2,0.2-0.3,1.9-0.6,1.9
			c0.2-0.7,0.5-2.1,0.7-3.3c-0.1-0.2-0.1,0.3-0.2,0.8c0-0.9,0.1-1.7,0.2-2.9c-0.1-0.1-0.2,0.2-0.2,0.5c-0.1-0.2,0.2-1,0.1-1.4
			c0.1,0.7,0.3,1.3-0.1,2.6c0.3-0.9,0.7-1.8,0.9-3.6c0,1.3-0.5,3.7-1.2,6.6c0.1-0.1,0.2-0.1,0.3-0.3c0,0-0.2,0.5-0.3,0.8
			c0,0.5,0.1,0.4,0.2,0.5c1.1-4,1-7.2,1.7-10.7c0,0.6-0.1,1.2-0.2,2.4c0,0,0.1-0.3,0.1-0.6c-0.1,1.7-0.3,3.5-0.8,5.5
			c0.7-2.5,1.1-5.8,1-7.5c0,0-0.1,0.5,0,0.7c-0.2-1,0.2-2.4,0.3-3.3c0.2,0.1-0.1,1.2-0.1,2c0.2-0.4,0.3-0.8,0.2-1.6
			c0.2,0.7,0.5-2.6,0.5-3.6c-0.2-0.1,0.1,0.7-0.1,0.9c0.1-0.1-0.1,0.9-0.1,2c-0.1,0.2,0-0.3,0-0.6c-0.1-0.1-0.1,0.2-0.1,0.3
			c0.1-1.5,0.2-2.9,0.3-3.8c0,0.7,0,0.6,0.2,0.7c0.3-1.4,0.4-3.4,1-3.4c-0.2,1-0.7,1.5-0.6,3.3c0.1,0.2,0.5-0.7,0.6-1.9
			c0.1-0.2-0.1,1.2,0.1,0.4c0.2,0.1,0,0.9,0,1.1c-0.1-0.8-0.2,0.1-0.3,0.9c0.1-0.3,0.3-0.5,0.4-1.5c0.1,0.7,0.2,0.1,0.3,0.4
			c-0.1,0.9-0.4,0.6-0.5,1.6c0.1,0.8,0.2-1.3,0.4-0.4c0.1-0.2,0.1-0.9,0.2-1.1c0.2,0.1,0.4-0.4,0.5-1.4c0.1-0.2,0.4,0.5,0.2-0.2
			c0.1-0.6,0.3,0.6,0.2,0.9c0.2-0.5,0.4-0.8,0.6-1.6c0.1,0.1,0.1,0.4,0.1,1c0.3-0.2,0.3-0.2,0.5-0.7c0,0.7,0.1,0.7,0,1.6
			c0.2-0.4,0.3-0.6,0.3-1.4c0.1,1.1,0.3-0.6,0.5-0.4c-0.1-0.7-0.1-1.3-0.1-1.8c0.2-0.4,0,1.1,0.1,1.4c0.1-0.3,0.1-1.2,0.1-1.4
			c0.1,0.2,0.1,1.3,0.3,1.1c0.3-1.4,1-0.8,1.1-3.3c-0.1-0.1,0.1-0.1,0.2-0.4c0,0.3,0,1.3,0.1,1.5c0.2,0.1,0.2-0.2,0.1-0.9
			c0.2,0.3,0.1,1,0.1,1.3c0,0.7,0.1,0.8,0.2,0.9c0,1.7,0.1,3.2,0.4,3.8c0,0,0.1-0.6,0.1-1.2c0-0.3-0.1-0.2-0.1,0.1
			c-0.1-0.4,0.3-1.7,0.3-1c0-0.9,0.1-0.9,0.1-1.7c0.3,0,0,0.6,0,1.4c0.2-1.4,0.1,0.2,0.2,0.7c0.1-0.1,0.1-0.9,0.3-0.3
			C955.9,555.9,955.7,555.2,955.8,555.2z M883.8,566.7c0.1-0.5-0.1-1.1-0.1-1.4C883.8,565.5,884.1,566.7,883.8,566.7z M884.8,570.7
			c-0.1-0.2-0.2-1-0.4-1.5C884.6,569.2,884.8,570.3,884.8,570.7z M885.1,572.5c0.4,0.8,0.4,1.7,0.6,2.9
			C885.5,575.1,885.3,573.5,885.1,572.5z M886.2,576.5c0.6,2.7,0.9,4.7,1.5,7l0.3,1.1c0,0.3,0.4,1.3,0.1,0.5c-0.3-1.9-1-3.9-1.2-5.3
			c0.1,0.2,0.2,0.7,0.2,0.7C886.8,578.8,886.5,577.5,886.2,576.5z M887.4,581.3c0.1,0.4,0.1,1.4,0.4,1.7
			C887.7,582.2,887.6,581.7,887.4,581.3z M888.6,586.1c0,0.6,0.2,1.2,0.3,1.4C888.8,586.8,888.6,586.5,888.6,586.1z M888.9,528.2
			c1.1,4.5,1.9,12.2,3,18.5c0,0,0,0-0.1-0.1c0.4,1.8,1.2,5.9,1.6,8.7c-0.2-0.3-0.3-1.3-0.4-1.8c-0.2,0.5,0.3,1.4,0.2,2.1
			c-0.9-4.6-1.8-8.6-2.3-13.1c-0.4-1.7-0.7-5.2-1.2-8.1c0.1-0.3,0.2,1.5,0.3,1.7c-0.1-1.7-0.5-2.9-0.6-4.6c-0.2,0.1,0,0.9,0,1.3
			C889.1,531.3,889.2,529.5,888.9,528.2z M889.5,533.4c0.1,0.1,0,0.3,0.1,0.4C889.5,533.7,889.5,533.5,889.5,533.4z M890.2,540.7
			c0-0.7-0.7-3.5-0.6-4C889.5,537.1,890.2,540.4,890.2,540.7z M891.5,598.7c-0.2-0.2-0.2-1-0.5-1.5
			C891.3,597.7,891.4,598.1,891.5,598.7z M892.4,550.4c0.1,0.7,0.3,1.7,0.5,2.3C892.8,552,892.7,551,892.4,550.4z M893.5,559.2
			c0-0.6-0.3-1.4-0.4-1.9C893.1,557.8,893.3,558.7,893.5,559.2z M893.9,557.4c0,0.5,0.1,1-0.2,0.4c0.2-0.2-0.2-1-0.2-1.5
			c0.1-0.1,0.1,0.5,0.2,0.7c0.1-0.3-0.2-1-0.2-1.5c0.3,0.9,0.4,1.7,0.7,3C894.1,558.6,894,557.6,893.9,557.4z M894.1,562.5
			c-0.1-0.5-0.3-1.6-0.3-1.4C893.9,561.9,893.9,562.2,894.1,562.5z M894.4,561.5c-0.1-0.4-0.2-1.2-0.3-1.7
			C894.4,560,894.5,561,894.4,561.5z M897.3,578.1c0.3-0.2,0.4,1.7,0.7,2.4C897.7,580.3,897.6,578.5,897.3,578.1z M898.3,581.6
			c0.1-0.1,0.1-0.2,0-0.3c0.1,0.2,0.2,1,0.4,1.4c-0.2-0.1-0.2-0.5-0.1,0.3c0,0-0.3-1.1-0.4-1.7C898.2,581.5,898.2,581.5,898.3,581.6
			z M900.2,591.2c-0.1-0.5-0.3-1.7-0.5-1.8C900,590,900,591,900.2,591.2z M901.2,627.8c0.1,0.5-0.3,0-0.4,0.1
			C900.6,627.2,901,628,901.2,627.8z M901.1,591.8c-0.1-0.4-0.1-0.8-0.3-1.1c0.1,0.4,0.1,0.7,0,1.1c0.1,0.2,0.2,0.6,0.2,1
			C901.2,592.5,901.1,592.1,901.1,591.8z M901.1,594.6l-0.1-0.1c-0.1-0.4-0.1-0.7-0.2-0.9c0.1,0.1-0.1,0.2,0,0.3
			C900.9,594.1,901,594.4,901.1,594.6z M900.9,593.3c0.1,0.2,0.1,0.5,0.2,0.9c0-0.5,0-0.7,0.1-1.2c-0.1-0.1-0.2-0.6-0.2-1
			C900.8,592.4,900.9,592.8,900.9,593.3z M901.3,593c0,0.3,0,1-0.1,1.8l0.1,0.1C901.4,594,901.3,593.2,901.3,593z M901.3,575.7
			c0.2-1.1,0.2-3,0.2-4C901.4,572.9,901.2,574.9,901.3,575.7z M902.3,561.1c0.2,0.1-0.3,1.7-0.2,2.1c0.4-0.9,0.4-1.7,0.4-0.6
			c-0.2,0.5-0.1,2-0.4,2.6c-0.1,0.1,0-0.9,0.1-1.2c-0.3,0.3-0.3,1.7-0.5,2.6C901.9,565,902,563.6,902.3,561.1z M903.4,560.3
			c-0.3,1-0.4,2.5-0.5,3.6C903,562.8,903.2,561.4,903.4,560.3z M903.5,556.1c0,0.7-0.3,2.2-0.4,3.1
			C902.9,558.5,903.3,556.9,903.5,556.1z M903.3,628.3c0,0-0.2-0.3-0.3-0.3c0.1,0.2-0.1,0.2,0,0.3
			C903.5,628.8,903.2,628.4,903.3,628.3z M903.3,627.7c0.1,0.2,0.3,0.6,0.4,0.5C903.6,627.9,903.4,627.7,903.3,627.7z M903.4,627.1
			c0.1,0.1,0.1,0.1-0.1,0.2l0.2,0.6C903.7,627.9,903.5,627,903.4,627.1z M904.3,554.4c-0.3,0.9-0.5,2.9-0.5,2.7
			C904.1,555.7,904.3,555.2,904.3,554.4z M905.2,627.2c0.1,0.1,0.1,0.1,0.1,0.2C905.3,627.3,905.2,627.2,905.2,627.2z M911.2,540.1
			l-0.1,0.1C911.2,540.1,911.2,540.1,911.2,540.1z M911.2,540.1c0.5-0.4,1-0.8,1.5-1.1c1.9-0.8,3.7-1.5,5.8-1.3l0.1,0.1
			c1.8-0.1,4.1,0.9,5.6,2.1c0.6,0.6,1.2,1.2,1.7,1.9c0.5,0.6,0.9,1.1,1.3,1.6c-0.8-0.9-1.5-2.1-3-3.3c-1.5-1.2-4-2.4-6.7-2.3
			C915,538.2,913.1,538.7,911.2,540.1z M915.1,555.5c0-0.3,0.4-2.1,0.6-1.9C915.5,554.1,915.3,554.9,915.1,555.5z M917.5,548.9
			c0.5,0.6,1.2,2,1.7,3.3c0.5,1.5,1,3.1,1.5,4.9l0.5,1.8c0,0.5,0.4,1.9,0.1,0.8c-0.6-3-1.8-6.2-2.2-7.8c0.1,0.2,0.3,0.9,0.3,0.9
			C918.8,550.5,918,549.2,917.5,548.9z M917.7,547.6c-0.1,0.1-0.1,0.2-0.2,0.2c0.1-0.1,0.1-0.1,0.1-0.1l-0.1-0.1
			C917.7,547.6,917.7,547.6,917.7,547.6z M917.7,547.9l0.1,0.1C917.7,547.9,917.7,547.9,917.7,547.9z M919.9,553.8
			c0.2,0.5,0.4,1.9,0.8,2.3C920.5,555,920.2,554.3,919.9,553.8z M921.9,561.2c0.1,0.7,0.4,1.8,0.5,2.3
			C922.3,562.5,922,561.7,921.9,561.2z M926.4,582.7c-0.2-0.3-0.5-1.8-0.8-2.6C926.1,580.9,926.1,581.6,926.4,582.7z M927.6,544.6
			c3.1,5.3,4.3,11.2,5.6,17.1c1.3,5.8,2.3,11.7,3.5,16.2c-0.3-0.3-0.6-2-0.9-3.3c-1.1-4.6-2-9.7-3.2-14.7
			C931.5,554.9,930.4,549.8,927.6,544.6z M929.2,548.6c0.2-0.1,1.1,3.2,1.5,4.5C930.3,552.6,929.7,549.5,929.2,548.6z M931.3,555.1
			c0,0-0.1-0.4-0.1-0.7c0.1,0.5,0.5,2.1,0.6,2.6c-0.2-0.2-0.2-0.7,0,0.6c-0.1,0.2-0.5-2.1-0.8-2.9
			C931.1,554.8,931.2,554.9,931.3,555.1z M934.4,571.6c-0.2-0.9-0.4-2.8-0.7-3.1C934,569.8,934.1,571.3,934.4,571.6z M935.6,574.6
			c0,0.9-0.4-1.4-0.5-1.9c-0.3-1.4-0.6-2.7-0.6-3.4c0.1,0.2,0.2,0.3,0.2,0.5C934.7,571,934.9,572.3,935.6,574.6z M935.8,577.9
			c-0.1-0.8-0.6-2.9-0.8-3.2C935.3,576.2,935.5,577,935.8,577.9z M938.7,583.5c0.2,0.5,0.3,0.6,0.3,0.6l0.1,0.1
			c-0.2-0.1-0.1,0.2-0.3-0.3c-0.2-0.5-0.5-1.2-0.7-1.6C938,582.2,938.4,582.8,938.7,583.5z M942.5,581.6c0.1-0.3,1-1.7,0.9-2.2
			c-0.8,2-1.3,2.7-1.6,3.6c-0.3,0.3-0.8,0.9-1.1,1.3c1-0.6,1.6-2.4,1.7-2.2c0.3-0.5,0.3-0.6,0.5-1C944,578.4,943,580.9,942.5,581.6z
			 M942.9,580.1c0,0.3-0.3,0.6-0.4,1.1c-0.1-0.4,0.3-0.9,0.5-1.6C943.4,578.8,942.4,580.9,942.9,580.1z M944.5,572.4
			c0,0.7-0.4,1.7-0.7,2.8C943.8,574.8,944.3,573.3,944.5,572.4z M945.2,566c0-0.3,0.3-1,0.4-1.7c0.1,0.2-0.3,1-0.1,1.2
			C945.5,566.1,945.4,565.2,945.2,566z M946.1,566.5c-0.1-0.4,0.1-1.5,0.1-2.2C946.3,564.7,946.1,565.8,946.1,566.5z M946.5,563.4
			c0-0.6,0-1.7,0-2.2C946.8,560.4,946.5,562.7,946.5,563.4z M947.4,561.5c0.3-1.3,0.4-2.1,0.6-3.6
			C947.7,558.3,947.5,560.7,947.4,561.5z M948,559.7c-0.1,0.2-0.1,0.5,0.1,0.4c-0.1-0.7,0.2-1,0-1.3c0,0.3-0.2,0.7-0.2,1.1
			C947.9,559.8,948,559.7,948,559.7z M949.2,558.3c-0.1-0.1-0.1-0.1-0.1-0.1S949.1,558.2,949.2,558.3z M953.7,556.6l0-1.1
			c-0.1-0.1-0.1,1.4,0,1.3C953.6,556.7,953.7,556.6,953.7,556.6z M953.7,554.8c0,0.7,0.1,1.1,0.2,1.2
			C953.9,555.4,953.9,554.8,953.7,554.8z M954.2,555.5c0-0.3,0.1-0.2,0.2-0.5c-0.2-0.9-0.2-0.1-0.3,0
			C954.1,555,954.2,555.7,954.2,555.5z M956.4,556.9c-0.2,1.1-0.2-0.5-0.5-0.1C956,555.9,956.3,557,956.4,556.9z"/>
	</g>
</g>
</svg>
